<?xml version="1.0" encoding="UTF-8" ?>
<!DOCTYPE svg PUBLIC "-//W3C//DTD SVG 1.1//EN" "http://www.w3.org/Graphics/SVG/1.1/DTD/svg11.dtd">
<svg width="660pt" height="350pt" viewBox="0 0 660 350" version="1.1" xmlns="http://www.w3.org/2000/svg">
<g id="#ffffffff">
<path fill="#ffffff" opacity="1.00" d=" M 489.69 247.52 C 496.09 244.36 502.62 240.08 510.04 240.25 C 503.87 243.87 497.46 250.08 489.69 247.52 Z" />
<path fill="#ffffff" opacity="1.00" d=" M 476.46 251.61 C 480.12 250.17 484.61 249.79 488.27 251.24 C 484.73 252.82 481.31 254.66 477.64 255.89 C 477.25 254.46 476.86 253.03 476.46 251.61 Z" />
<path fill="#ffffff" opacity="1.00" d=" M 592.97 348.41 C 615.32 347.90 637.69 347.81 659.99 346.13 L 660.00 346.98 L 660.00 350.00 L 493.01 350.00 C 497.31 349.18 501.69 349.47 506.05 349.45 C 535.03 349.35 563.99 348.79 592.97 348.41 Z" />
<path fill="#ffffff" opacity="1.00" d=" M 0.00 346.12 C 10.31 347.03 20.66 347.34 31.01 347.60 C 70.35 348.66 109.70 349.04 149.05 349.46 C 154.72 349.65 160.47 348.92 166.09 350.00 L 0.00 350.00 L 0.00 346.12 Z" />
</g>
<g id="#231f20ff">
<path fill="#231f20" opacity="1.00" d=" M 505.65 0.00 L 509.09 0.00 C 513.63 3.29 516.43 8.49 517.59 13.90 C 521.18 30.12 520.47 47.42 514.78 63.08 C 513.45 66.21 512.07 69.99 508.63 71.32 C 505.65 72.21 502.40 71.69 499.54 70.60 C 492.95 67.65 487.24 63.09 482.20 57.96 C 480.59 66.27 476.11 76.22 482.53 83.60 C 484.99 84.00 487.51 83.81 490.00 83.82 C 491.49 85.34 493.07 86.85 493.95 88.83 C 498.27 98.39 503.03 107.76 508.36 116.80 C 508.83 118.25 510.40 117.66 511.50 117.41 C 531.77 111.26 553.67 109.24 574.49 113.78 C 592.93 117.85 610.03 126.68 625.17 137.82 C 626.89 139.12 628.30 140.77 629.72 142.39 C 620.80 141.97 612.09 139.59 603.15 139.49 C 624.24 153.41 642.30 173.27 650.18 197.64 C 656.98 217.98 656.45 240.17 651.47 260.85 C 647.12 278.69 638.70 295.84 625.71 308.98 C 612.14 323.18 594.30 332.76 575.61 338.35 C 557.56 342.66 538.54 342.04 520.44 338.30 C 505.20 334.08 490.79 326.65 478.76 316.35 C 465.88 305.50 456.44 291.12 449.48 275.91 C 448.08 280.74 446.98 285.80 444.08 290.01 C 439.95 296.57 432.28 300.97 424.46 300.55 C 425.93 295.06 428.24 289.78 428.84 284.09 C 431.24 268.01 426.28 252.14 426.28 236.08 C 426.11 221.49 429.05 206.97 433.62 193.16 C 440.97 171.16 455.09 151.56 473.52 137.51 C 475.27 136.06 478.25 134.13 476.59 131.51 C 472.80 123.43 468.74 115.45 464.50 107.59 C 463.25 104.67 459.81 104.15 457.26 102.84 C 452.17 104.88 446.05 103.04 441.50 106.54 C 439.73 107.68 438.98 109.72 438.24 111.58 C 431.72 129.92 425.32 148.32 418.41 166.52 C 417.18 169.91 415.81 173.45 416.31 177.13 C 416.69 180.26 418.90 182.78 419.44 185.88 C 423.62 206.26 422.43 227.65 416.54 247.57 C 414.05 256.41 409.98 264.92 403.89 271.86 C 398.32 278.28 390.86 282.88 382.87 285.69 C 379.52 286.73 377.47 289.78 374.57 291.55 C 370.30 294.35 365.10 295.20 360.08 295.22 C 335.38 295.17 310.69 295.25 286.00 295.19 C 276.66 294.70 267.30 294.97 257.96 294.93 C 253.79 295.57 252.20 290.58 248.51 289.71 C 243.82 288.59 238.94 288.79 234.20 288.09 C 232.36 287.96 230.26 287.38 228.69 288.66 C 226.81 290.55 225.70 293.03 224.21 295.21 C 217.10 305.88 208.17 315.41 197.60 322.72 C 189.35 328.64 180.02 332.84 170.55 336.39 C 167.52 337.50 164.31 337.96 161.12 338.39 C 146.45 340.18 131.59 339.73 116.89 338.46 C 113.51 338.20 110.30 337.02 107.10 335.97 C 95.98 332.19 85.13 327.22 75.67 320.18 C 65.50 312.81 56.91 303.34 50.22 292.73 C 48.25 289.70 46.84 286.18 44.03 283.81 C 41.02 281.74 37.15 283.14 33.83 282.11 C 26.72 280.12 21.79 274.21 17.07 268.92 C 15.32 267.11 16.72 264.64 18.44 263.44 C 23.27 259.65 27.68 254.88 33.85 253.32 C 32.32 242.64 30.63 231.86 31.55 221.05 C 31.68 216.22 33.02 211.51 33.05 206.68 C 30.74 212.53 28.76 218.68 24.62 223.56 C 19.77 229.61 12.33 232.94 4.73 233.79 C 9.48 219.43 14.61 205.14 18.00 190.39 C 15.35 189.90 12.61 189.82 10.03 189.00 C 6.66 187.60 5.55 183.46 6.15 180.14 C 7.58 170.09 9.04 160.04 10.38 149.97 C 10.83 146.67 10.73 142.95 13.19 140.37 C 17.46 140.30 21.73 140.02 26.00 140.07 C 28.71 139.76 30.53 142.23 33.00 142.85 C 35.38 142.99 37.70 142.28 40.06 142.14 C 43.28 141.92 43.82 146.83 46.85 146.81 C 49.59 144.56 51.83 141.77 54.45 139.40 C 63.12 131.39 72.95 124.60 83.59 119.46 C 86.15 118.24 88.86 117.41 91.60 116.71 C 90.35 107.84 89.87 98.88 89.48 89.94 C 89.16 87.58 90.56 84.93 93.01 84.43 C 95.67 83.86 98.31 83.10 100.57 81.53 C 105.62 78.20 111.57 81.86 117.03 81.33 C 127.99 80.65 139.19 78.17 150.02 81.19 C 152.99 82.28 156.06 81.08 159.10 81.19 C 161.05 81.53 162.51 83.04 164.14 84.06 C 166.96 84.23 169.76 84.68 172.43 85.63 C 172.90 87.40 173.38 89.21 173.03 91.05 C 172.33 96.69 172.32 102.40 171.63 108.05 C 171.47 110.22 170.95 112.44 171.42 114.61 C 174.07 116.23 177.06 117.15 179.88 118.42 C 188.52 122.16 196.73 126.96 204.13 132.80 C 207.64 132.41 212.80 134.07 214.97 130.50 C 211.91 130.35 208.85 130.38 205.80 130.41 C 205.30 129.44 204.81 128.47 204.33 127.51 C 207.26 126.65 210.27 126.15 213.26 125.51 C 210.79 122.21 203.37 126.87 203.41 120.98 C 206.27 119.88 210.39 120.57 212.17 117.67 C 208.95 117.52 205.74 117.53 202.52 117.42 C 202.51 116.45 202.51 115.48 202.50 114.51 C 205.26 113.78 208.08 113.34 210.91 113.00 C 210.89 112.56 210.86 111.68 210.84 111.24 C 208.08 111.48 205.30 111.54 202.53 111.58 C 202.29 110.31 201.10 108.64 202.84 107.93 C 205.32 106.81 209.79 108.27 210.48 104.89 C 207.69 104.82 204.88 105.00 202.10 104.76 C 200.42 104.28 200.88 101.62 202.48 101.41 C 206.49 100.36 210.71 100.71 214.82 100.62 C 214.83 100.31 214.84 99.68 214.85 99.36 C 210.42 99.40 206.00 99.48 201.58 99.19 C 201.83 97.86 202.10 96.54 202.38 95.21 C 201.55 95.02 200.72 94.81 199.90 94.62 C 197.80 91.77 195.55 88.70 195.21 85.06 C 194.81 81.73 197.65 78.78 200.86 78.41 C 208.60 77.47 216.29 80.08 223.07 83.63 C 228.91 87.03 235.84 87.20 242.25 88.85 C 252.70 91.53 263.49 89.34 273.99 88.15 C 278.77 87.56 283.97 88.21 288.03 90.95 C 290.69 92.75 291.03 96.78 289.12 99.24 C 286.11 103.58 280.85 105.32 276.30 107.52 C 279.96 110.51 282.90 114.30 284.68 118.69 C 287.12 118.04 289.94 117.07 292.09 118.98 C 293.45 120.26 295.05 119.82 296.45 118.90 C 291.56 115.88 288.14 109.82 290.31 104.08 C 295.06 91.85 306.23 83.85 317.11 77.39 C 335.44 66.35 355.77 59.01 376.54 54.10 C 376.27 52.24 374.92 50.30 375.48 48.45 C 379.62 45.54 385.05 45.94 389.80 44.80 C 393.70 44.37 397.66 41.94 401.56 43.72 C 404.26 44.79 402.34 48.33 403.85 50.24 C 410.28 51.04 416.70 51.99 422.99 53.65 C 421.37 47.89 416.10 44.08 414.76 38.24 C 413.87 33.48 408.23 31.39 403.92 32.44 C 399.12 32.85 395.01 35.61 391.97 39.21 C 384.20 37.56 377.31 42.22 369.90 43.26 C 365.62 41.96 364.55 35.05 368.44 32.64 C 374.21 33.03 379.61 30.79 385.01 29.07 C 384.92 28.59 384.74 27.64 384.65 27.16 C 378.55 28.18 372.44 29.48 366.57 31.49 C 364.32 32.25 361.19 32.30 359.93 29.89 C 357.72 26.83 358.36 22.85 359.91 19.66 C 364.01 18.49 368.32 19.00 372.48 18.16 C 377.14 17.17 382.23 17.19 386.11 14.05 C 389.81 11.40 393.22 16.47 397.05 15.13 C 404.01 13.38 411.79 11.93 418.50 15.39 C 425.07 19.39 429.19 26.22 433.46 32.41 C 434.78 30.15 436.98 26.82 434.43 24.60 C 431.65 22.19 428.74 18.37 430.64 14.56 C 432.19 11.65 435.75 11.39 438.39 12.92 C 439.43 9.71 443.88 9.41 445.38 12.39 C 447.96 16.00 444.23 19.46 442.44 22.40 C 444.06 22.40 445.41 21.46 446.75 20.70 C 447.26 20.63 448.28 20.48 448.79 20.41 C 449.87 21.77 450.95 23.15 452.01 24.54 C 454.71 22.82 457.41 21.09 460.07 19.29 C 461.96 21.03 463.95 22.66 466.15 23.99 C 471.44 19.01 475.82 12.97 482.27 9.35 C 486.71 6.04 492.53 5.27 496.73 1.62 C 499.69 1.02 502.66 0.48 505.65 0.00 M 491.19 10.19 C 483.21 13.90 475.93 19.25 470.25 25.99 C 476.10 23.72 481.75 20.82 487.86 19.22 C 489.95 18.62 492.15 18.23 494.12 17.25 C 496.23 15.22 495.38 11.80 494.84 9.28 C 493.53 8.81 492.34 9.74 491.19 10.19 M 400.10 22.64 C 397.84 23.14 395.11 23.10 393.50 25.03 C 393.32 26.32 393.78 28.18 395.44 27.36 C 400.81 25.22 407.27 24.40 412.41 27.59 C 415.68 29.12 417.36 32.45 420.07 34.66 L 420.46 33.18 C 418.73 28.31 415.03 23.74 409.94 22.17 C 406.71 21.01 403.35 22.30 400.10 22.64 M 457.38 44.46 C 463.61 58.74 471.52 72.22 477.79 86.49 C 478.82 86.57 479.92 86.59 479.90 85.21 C 474.96 74.58 469.28 64.31 464.14 53.78 C 462.35 50.60 461.04 47.12 458.77 44.24 C 458.42 44.30 457.73 44.40 457.38 44.46 M 466.32 44.26 C 467.38 47.59 468.19 51.11 470.18 54.04 C 472.18 56.34 475.60 55.07 477.94 54.05 C 475.09 49.72 470.55 47.05 466.32 44.26 M 389.15 59.80 C 369.26 62.84 349.97 69.19 331.80 77.75 C 327.70 79.81 323.56 81.91 319.96 84.78 C 344.15 73.27 370.01 64.18 396.93 62.42 C 405.59 61.79 414.27 62.23 422.94 62.52 C 412.62 56.69 400.35 57.88 389.15 59.80 M 471.08 58.59 C 471.96 62.23 474.25 65.30 475.45 68.83 C 476.26 65.47 477.04 62.10 477.46 58.67 C 475.33 58.61 473.20 58.58 471.08 58.59 M 375.55 70.58 C 379.66 70.65 383.48 68.93 387.48 68.25 C 396.24 66.31 405.95 64.56 414.40 68.57 C 422.02 72.00 426.33 80.75 425.23 88.91 C 424.51 99.20 416.87 107.69 407.97 112.18 C 397.22 117.73 384.77 117.68 372.98 117.28 C 363.33 117.27 353.68 117.28 344.03 117.28 C 332.94 117.14 321.66 117.72 310.85 114.80 C 307.58 113.86 304.51 111.42 303.78 107.96 C 302.80 104.61 304.33 101.10 306.72 98.75 C 314.72 90.24 325.79 85.57 336.82 82.36 C 331.43 86.49 324.05 87.20 319.04 91.94 C 331.27 87.12 344.07 81.08 357.53 82.64 C 362.95 83.23 365.78 88.27 366.66 93.14 C 366.78 90.34 366.36 87.56 366.16 84.77 C 368.42 88.32 370.31 92.68 368.97 96.92 C 367.44 101.52 363.61 104.75 360.18 107.95 C 367.78 104.73 372.88 96.14 370.95 87.92 C 369.85 81.45 363.36 77.02 357.00 77.13 C 339.50 77.16 322.75 84.54 308.97 94.97 C 305.69 97.43 303.54 101.16 302.55 105.10 C 301.78 109.69 305.39 113.90 309.56 115.30 C 321.70 119.09 334.52 117.38 347.00 117.72 C 358.37 117.91 369.77 117.20 381.10 118.30 C 389.69 118.38 398.51 117.62 406.52 114.31 C 418.06 109.58 427.50 97.83 426.79 84.97 C 426.47 75.73 419.40 67.12 410.23 65.46 C 398.44 62.47 386.50 66.38 375.55 70.58 M 217.08 104.13 L 217.10 105.11 C 219.29 106.42 222.52 104.36 224.87 105.73 C 226.45 106.15 225.97 108.14 225.08 108.97 C 222.35 109.57 219.46 109.57 216.90 110.82 C 218.92 114.39 225.68 109.54 226.55 114.07 C 224.90 116.63 220.71 115.96 217.93 116.84 C 218.09 117.24 218.40 118.04 218.56 118.44 C 221.16 118.49 223.77 118.55 226.37 118.69 C 226.61 119.30 227.10 120.51 227.35 121.12 C 224.69 122.25 221.86 122.80 219.05 123.38 C 218.89 123.77 218.56 124.54 218.40 124.92 C 221.39 124.47 224.43 124.60 227.30 125.62 C 227.26 126.42 227.23 127.22 227.20 128.03 C 224.69 128.66 222.21 129.38 219.65 129.76 C 219.56 130.22 219.37 131.12 219.28 131.58 C 221.73 131.97 224.19 132.22 226.66 132.48 C 226.68 133.01 226.74 134.07 226.77 134.61 C 223.96 135.26 221.16 135.97 218.30 136.27 L 218.18 138.16 C 220.63 138.13 223.09 138.19 225.54 138.43 C 225.56 138.92 225.60 139.89 225.62 140.38 C 222.64 141.75 218.93 142.43 217.03 145.35 C 219.69 147.95 222.06 150.84 224.61 153.56 C 231.41 149.04 238.24 144.56 245.03 140.03 C 246.06 139.23 247.44 138.47 247.62 137.03 C 246.92 133.51 244.43 130.51 244.33 126.84 C 245.98 127.26 248.00 125.88 246.86 124.11 C 245.40 120.59 243.90 117.09 242.45 113.57 C 239.87 113.00 237.30 112.30 234.94 111.08 C 231.01 109.17 228.11 105.60 224.02 103.97 C 221.75 103.42 219.33 103.60 217.08 104.13 M 493.73 107.89 C 493.68 111.74 496.37 114.81 497.80 118.22 C 514.36 152.16 529.76 186.68 546.80 220.38 C 547.05 220.50 547.55 220.74 547.81 220.86 C 547.27 219.21 546.59 217.62 545.87 216.05 C 537.16 198.01 528.54 179.93 520.19 161.73 C 512.64 145.64 505.75 129.22 497.42 113.51 C 496.32 111.57 495.68 109.19 493.73 107.89 M 266.47 110.64 C 260.50 112.39 254.33 113.40 248.12 113.74 C 251.64 119.64 255.83 125.14 258.99 131.23 C 261.74 131.00 264.00 128.63 266.86 128.29 C 272.38 127.46 276.82 123.82 280.95 120.32 C 278.73 116.32 275.51 112.82 271.48 110.61 C 269.88 109.77 268.09 110.14 266.47 110.64 M 481.29 112.70 C 483.65 116.86 484.80 121.71 487.85 125.46 C 489.07 124.74 490.27 123.98 491.40 123.11 C 490.01 119.06 487.92 115.34 485.82 111.64 C 484.29 111.94 482.78 112.30 481.29 112.70 M 95.98 121.63 C 95.17 122.01 94.40 122.45 93.66 122.97 C 93.99 123.65 94.65 125.03 94.98 125.71 C 111.30 120.03 128.85 117.17 146.09 119.44 C 170.31 122.11 192.79 134.00 210.65 150.27 C 212.65 151.88 214.25 154.12 216.74 155.02 C 212.39 148.56 206.67 143.11 200.50 138.39 C 190.31 130.80 179.18 124.30 167.08 120.30 C 144.20 112.35 118.57 113.06 95.98 121.63 M 480.09 117.94 C 481.00 121.44 482.97 124.52 484.47 127.78 C 499.92 158.25 515.92 188.46 533.34 217.86 C 535.10 220.61 536.73 223.50 537.53 226.70 C 537.80 226.06 538.33 224.78 538.59 224.14 C 537.40 222.09 535.45 220.63 534.37 218.53 C 516.59 184.83 498.08 151.52 480.09 117.94 M 515.07 125.58 C 513.84 125.98 512.74 126.66 511.83 127.56 C 528.58 123.18 546.10 121.47 563.34 123.46 C 562.92 122.37 562.48 121.28 562.05 120.20 C 546.28 119.35 530.03 120.08 515.07 125.58 M 573.42 122.48 L 573.84 124.19 C 578.85 126.50 584.40 127.57 589.62 129.44 C 593.18 130.36 596.44 132.46 600.18 132.62 C 591.88 127.94 582.96 123.67 573.42 122.48 M 311.89 126.76 C 311.46 132.09 315.31 136.96 320.13 138.83 C 320.97 136.58 320.84 133.45 323.32 132.25 C 326.05 130.77 328.88 129.35 331.02 127.02 C 324.67 126.41 318.26 126.46 311.89 126.76 M 368.79 129.04 C 370.94 130.25 373.54 130.79 375.33 132.60 C 377.09 134.45 377.32 137.08 377.78 139.47 C 384.94 138.85 392.04 137.37 398.69 134.59 C 394.56 130.77 389.78 126.93 383.93 126.50 C 378.45 126.20 372.96 126.64 367.48 126.45 C 367.24 127.60 367.48 128.74 368.79 129.04 M 394.72 126.92 C 397.28 128.79 399.45 131.15 402.03 132.98 C 406.81 131.30 411.24 128.65 416.23 127.47 C 409.08 126.80 401.89 126.44 394.72 126.92 M 50.81 155.88 C 44.09 164.39 37.52 173.40 34.28 183.87 C 45.27 162.24 61.99 143.04 83.63 131.61 C 85.24 130.96 85.58 129.34 85.11 127.79 C 71.51 133.98 60.34 144.56 50.81 155.88 M 403.94 135.30 C 407.70 141.39 410.50 147.98 411.83 155.03 C 414.16 148.33 416.42 141.60 419.01 134.98 C 419.59 133.61 419.73 132.12 419.84 130.64 C 414.20 130.73 408.95 132.93 403.94 135.30 M 281.54 137.62 C 279.35 138.82 275.92 139.92 276.49 143.07 C 276.86 145.14 275.06 146.22 273.38 146.75 C 272.50 149.80 272.99 152.95 273.27 156.05 C 275.48 157.38 278.06 158.63 279.18 161.12 C 279.97 163.08 280.08 165.22 280.56 167.26 C 280.68 164.48 280.19 161.66 280.77 158.91 C 282.05 156.21 285.13 155.26 287.53 153.85 C 286.37 152.33 284.43 151.05 284.41 148.94 C 284.41 146.55 284.62 144.17 284.65 141.78 C 287.28 142.33 289.97 142.33 292.65 142.17 C 293.68 143.80 294.79 145.39 295.65 147.12 C 295.93 149.48 295.59 151.91 296.33 154.22 C 297.38 150.08 295.13 145.74 296.66 141.70 C 298.19 139.43 301.24 139.76 303.62 139.37 C 303.83 137.11 305.11 135.40 307.08 134.36 C 303.29 132.73 299.20 131.09 295.01 131.89 C 290.15 132.79 285.99 135.63 281.54 137.62 M 307.55 138.54 C 309.78 139.32 312.44 140.05 313.68 142.27 C 314.83 144.80 314.67 147.72 315.79 150.27 C 316.68 151.79 318.28 151.03 319.62 150.75 C 319.91 148.18 320.58 145.60 320.24 143.00 C 318.93 140.99 316.11 141.30 314.50 139.68 C 313.04 138.35 311.56 137.05 309.93 135.96 C 309.11 136.80 308.32 137.66 307.55 138.54 M 392.96 139.54 C 387.92 141.07 382.69 141.85 377.47 142.48 C 376.93 146.10 376.96 151.92 381.87 152.18 C 383.35 151.15 384.88 148.98 386.88 150.24 C 388.47 150.55 389.00 152.25 389.81 153.44 C 396.98 155.35 403.05 159.81 408.29 164.93 C 409.89 155.18 406.66 145.30 401.16 137.31 C 398.27 137.38 395.69 138.77 392.96 139.54 M 205.60 169.67 C 191.88 178.98 178.07 188.17 164.67 197.92 C 162.02 199.87 159.32 201.78 156.97 204.10 C 186.90 184.80 216.35 164.78 245.97 145.02 C 249.24 142.63 252.86 140.74 255.94 138.08 C 238.53 147.57 222.29 159.02 205.60 169.67 M 257.62 144.51 C 257.36 145.12 256.85 146.35 256.59 146.96 C 256.95 147.52 257.67 148.63 258.03 149.18 C 262.62 149.22 267.69 150.55 269.81 155.06 C 269.72 152.19 269.93 149.29 269.44 146.46 C 267.71 144.72 264.95 145.67 262.92 144.46 C 261.22 143.44 259.30 143.49 257.62 144.51 M 332.73 144.49 C 343.24 144.94 353.82 145.13 364.32 144.45 C 353.80 143.96 343.25 144.05 332.73 144.49 M 471.66 151.65 C 462.97 159.72 456.29 169.78 451.24 180.47 C 440.97 201.23 437.35 224.94 439.68 247.91 C 440.26 259.36 444.35 271.11 440.55 282.40 C 439.38 286.56 436.37 289.72 433.67 292.95 C 438.24 290.13 442.46 285.76 442.67 280.10 C 442.83 276.46 445.68 273.62 448.98 272.51 C 463.50 267.11 477.81 261.16 492.05 255.05 C 505.36 249.20 518.96 244.03 532.27 238.17 C 533.74 237.25 535.97 237.08 536.78 235.35 C 525.40 239.61 514.27 244.55 503.03 249.16 C 484.63 256.66 466.58 265.03 447.83 271.64 C 446.73 272.01 444.55 272.96 444.51 271.05 C 441.37 252.12 438.77 232.66 442.31 213.58 C 446.10 191.22 456.27 169.59 472.80 153.83 C 475.65 150.48 479.91 148.38 482.02 144.42 C 477.76 145.48 474.88 148.94 471.66 151.65 M 128.25 156.30 C 127.59 161.84 127.04 167.43 127.39 173.01 C 129.95 176.82 133.15 180.25 136.68 183.19 C 136.87 174.27 136.48 165.35 136.77 156.43 C 133.98 155.65 131.05 155.42 128.25 156.30 M 139.27 156.41 C 139.14 166.44 139.74 176.46 139.82 186.48 C 140.81 186.42 142.12 187.04 142.84 186.05 C 145.55 183.00 148.09 179.78 150.42 176.44 C 149.28 170.49 149.16 164.37 147.73 158.47 C 146.81 154.74 141.99 156.74 139.27 156.41 M 116.39 158.75 C 119.24 162.36 121.57 166.34 124.44 169.93 C 125.72 166.10 125.32 162.00 125.14 158.04 C 122.97 155.57 118.84 157.55 116.39 158.75 M 540.50 157.67 C 539.27 161.67 539.47 165.89 538.84 169.98 C 538.56 173.28 537.80 176.62 538.27 179.93 C 540.31 184.69 543.06 189.11 545.21 193.83 C 548.84 183.98 548.39 173.33 548.30 163.01 C 548.35 160.99 547.77 159.05 547.09 157.18 C 544.87 157.13 542.67 157.31 540.50 157.67 M 150.70 157.63 C 150.49 162.83 151.74 168.00 152.74 173.09 C 156.05 169.39 158.81 165.15 161.07 160.73 C 158.28 158.17 154.26 158.04 150.70 157.63 M 528.31 160.68 C 530.80 165.48 532.61 170.68 535.61 175.19 C 536.73 169.71 537.46 164.11 537.41 158.51 C 534.22 158.15 531.05 159.10 528.31 160.68 M 551.68 157.43 C 550.55 163.59 550.61 169.94 550.56 176.18 C 552.11 169.99 554.37 163.94 555.31 157.62 C 554.40 157.58 552.59 157.48 551.68 157.43 M 394.90 159.10 C 405.98 166.14 413.61 177.62 417.70 189.94 C 416.45 181.00 411.79 172.88 405.76 166.30 C 402.66 163.25 399.25 160.14 394.90 159.10 M 153.52 176.95 C 153.28 182.29 154.58 187.66 155.28 192.96 C 158.38 192.36 159.32 188.91 160.74 186.53 C 164.19 179.31 168.16 172.32 171.29 164.95 C 169.10 163.79 166.90 162.68 164.71 161.53 C 160.49 166.26 157.20 171.80 153.52 176.95 M 282.71 167.02 C 286.67 167.35 292.04 167.81 293.82 171.99 C 292.94 176.27 293.53 180.70 292.46 184.95 C 291.47 189.26 291.79 193.69 291.81 198.07 C 291.81 199.71 292.07 201.49 293.18 202.78 C 296.33 204.53 301.19 202.94 303.35 206.45 C 304.74 209.83 303.26 213.49 302.68 216.89 C 304.88 216.80 307.22 217.15 309.31 216.28 C 311.82 212.38 312.56 207.30 311.20 202.85 C 310.58 200.90 310.41 198.87 310.63 196.84 C 311.00 196.33 311.76 195.30 312.14 194.79 C 315.60 193.34 319.42 194.10 323.06 193.77 C 325.02 193.59 327.97 193.58 328.54 195.98 C 330.84 200.43 327.24 205.12 328.77 209.70 C 330.79 209.62 330.58 207.41 330.98 206.08 C 332.23 199.53 330.43 192.91 328.12 186.81 C 326.61 183.36 327.11 179.52 326.22 175.92 C 326.54 175.58 327.19 174.90 327.51 174.55 C 326.86 173.87 326.22 173.20 325.58 172.52 C 326.03 171.54 326.49 170.57 326.94 169.59 C 324.63 168.85 322.38 167.93 320.25 166.79 C 320.21 165.13 320.32 163.49 320.52 161.85 C 318.62 161.71 315.99 160.88 314.76 162.91 C 313.70 164.88 313.35 167.21 311.98 169.02 C 309.81 170.92 306.82 171.75 303.97 171.79 C 297.53 171.45 293.41 165.81 288.33 162.59 C 285.88 163.11 282.36 163.69 282.71 167.02 M 523.76 161.79 C 526.24 169.83 530.95 177.01 534.00 184.86 C 535.16 182.30 534.43 179.34 533.11 176.98 C 530.59 172.13 527.99 167.32 525.38 162.52 C 524.97 162.34 524.16 161.98 523.76 161.79 M 564.43 170.44 C 561.35 176.25 558.87 182.48 558.13 189.06 C 557.78 192.52 557.07 196.23 558.66 199.51 C 562.66 197.24 566.72 195.07 570.67 192.71 C 573.02 191.29 575.40 189.02 575.15 186.01 C 574.76 179.01 574.82 171.98 575.13 164.98 C 575.02 162.31 571.41 162.29 569.63 161.22 C 567.10 163.79 566.10 167.34 564.43 170.44 M 395.78 163.27 C 395.44 164.00 394.76 165.48 394.42 166.21 C 396.66 169.32 399.88 171.54 402.19 174.59 C 407.09 181.07 411.72 187.99 413.75 195.96 C 417.76 208.23 417.27 221.41 415.03 233.97 C 412.14 248.61 406.97 264.12 394.59 273.47 C 384.09 281.90 369.97 283.10 357.02 282.34 C 327.01 282.14 297.00 282.35 266.99 282.25 C 266.46 282.48 265.40 282.94 264.87 283.17 C 270.20 283.77 275.58 283.35 280.93 283.66 C 310.97 283.63 341.02 283.86 371.06 283.47 C 377.78 283.47 384.44 281.50 390.19 278.06 C 400.63 271.87 408.11 261.50 412.00 250.12 C 416.01 238.16 418.03 225.54 418.19 212.94 C 417.86 197.08 413.16 180.66 402.25 168.79 C 400.35 166.68 398.40 164.48 395.78 163.27 M 103.19 163.93 C 104.96 169.93 106.46 176.01 108.08 182.06 C 109.51 187.66 114.74 191.49 120.22 192.57 C 121.99 193.05 122.08 190.87 121.17 189.91 C 115.21 181.25 110.30 171.71 103.19 163.93 M 577.55 164.29 C 577.07 170.94 576.99 177.62 577.57 184.27 C 581.14 180.39 583.16 175.12 584.84 170.17 C 584.10 166.78 580.03 166.08 577.55 164.29 M 174.00 166.64 C 169.87 174.00 166.38 181.69 162.41 189.13 C 163.70 188.53 165.15 188.12 166.20 187.10 C 167.24 185.54 166.97 182.79 169.37 182.57 C 175.13 181.26 177.75 175.38 180.50 170.78 C 178.56 169.06 176.53 167.37 174.00 166.64 M 280.32 175.00 C 280.42 188.52 280.25 202.03 280.40 215.55 C 282.63 216.96 284.98 218.23 287.62 218.64 C 287.70 215.19 285.03 212.45 285.15 209.02 C 284.94 206.13 288.39 204.02 287.28 201.09 C 285.67 195.29 284.70 189.31 282.58 183.66 C 280.71 178.54 280.73 173.06 280.60 167.69 C 279.94 170.08 280.30 172.56 280.32 175.00 M 369.61 170.43 C 370.30 170.88 371.67 171.78 372.35 172.22 C 371.69 173.17 370.98 174.06 370.24 174.95 C 371.85 176.20 371.81 177.64 369.59 178.05 C 370.04 178.92 370.48 179.79 370.93 180.66 C 370.34 181.86 369.33 183.11 370.34 184.40 C 369.42 185.46 368.21 186.44 368.15 187.97 C 367.57 191.73 365.99 195.27 365.72 199.08 C 365.33 203.58 365.85 208.19 367.44 212.44 C 371.09 210.15 375.84 209.89 379.13 207.13 C 379.77 200.12 379.76 193.02 379.81 185.97 C 380.12 182.07 377.15 178.87 377.32 175.00 C 377.27 172.69 377.28 170.38 377.17 168.07 C 374.39 167.81 371.97 169.21 369.61 170.43 M 510.25 169.70 C 513.42 176.10 517.07 182.26 520.37 188.60 C 521.34 190.18 521.93 192.33 523.92 192.94 C 520.62 184.46 516.66 176.21 512.72 168.02 C 512.00 166.17 509.19 168.35 510.25 169.70 M 87.81 174.30 C 92.60 177.95 98.36 180.21 103.72 182.93 C 100.88 177.93 97.60 172.95 93.09 169.32 C 91.14 170.77 89.41 172.48 87.81 174.30 M 387.94 169.45 C 388.37 172.61 389.26 175.97 388.06 179.08 C 387.46 180.73 386.27 182.17 386.09 183.96 C 385.33 190.29 385.31 196.68 384.85 203.03 C 384.85 205.07 384.29 207.37 385.67 209.11 C 387.75 212.16 389.39 215.46 390.86 218.83 C 394.47 208.23 398.31 197.70 401.72 187.03 C 400.19 179.51 393.98 173.78 387.94 169.45 M 588.47 170.83 C 586.13 175.51 583.21 179.90 581.37 184.82 C 585.96 182.26 590.15 179.03 594.08 175.54 C 592.51 173.64 590.62 172.03 588.47 170.83 M 237.19 209.82 C 235.51 198.52 234.58 187.13 233.19 175.80 C 231.62 187.22 233.67 198.92 237.19 209.82 M 81.79 180.84 C 81.23 182.04 79.80 183.25 80.51 184.67 C 81.33 185.77 82.83 185.90 84.05 186.25 C 91.85 187.54 99.64 189.17 107.56 189.48 C 105.37 185.55 100.74 184.56 97.07 182.57 C 93.57 181.07 90.42 178.88 86.92 177.42 C 84.37 176.37 82.93 179.12 81.79 180.84 M 493.56 180.78 C 493.90 184.46 496.91 187.16 499.65 189.30 C 502.09 191.46 506.13 191.49 508.46 189.15 C 506.00 184.54 502.01 180.98 497.52 178.42 C 495.83 177.86 494.27 179.42 493.56 180.78 M 585.05 185.96 C 582.39 188.19 579.08 189.91 577.56 193.21 C 584.91 190.62 592.31 188.12 599.90 186.32 C 601.22 185.94 602.99 185.49 603.29 183.89 C 602.71 182.00 600.87 180.88 599.60 179.47 C 598.52 178.79 597.53 176.74 596.06 177.67 C 592.24 180.23 588.77 183.26 585.05 185.96 M 150.44 181.25 C 148.60 183.37 146.75 185.54 145.28 187.95 C 146.26 190.68 149.91 191.31 152.35 192.35 C 152.04 188.72 151.49 185.11 151.06 181.50 C 150.91 181.44 150.60 181.31 150.44 181.25 M 76.87 187.74 C 74.95 190.68 73.27 193.82 72.06 197.13 C 77.15 200.83 83.34 202.46 89.09 204.86 C 86.89 199.43 83.01 194.84 80.10 189.77 C 79.40 188.74 78.43 186.55 76.87 187.74 M 486.45 190.03 C 491.62 196.14 496.33 202.62 501.15 209.00 C 502.68 211.11 505.13 213.06 507.92 212.23 C 511.64 211.45 515.45 211.79 519.23 211.54 C 516.47 205.73 513.77 199.87 510.39 194.40 C 506.54 194.08 502.78 194.79 499.02 195.39 C 493.82 195.35 490.86 190.40 488.26 186.60 C 487.66 187.75 487.04 188.89 486.45 190.03 M 580.96 194.61 C 578.23 195.42 576.08 198.01 576.41 200.94 C 576.70 204.78 575.58 208.94 577.22 212.56 C 580.50 212.53 583.79 212.58 587.05 213.11 C 588.88 213.48 590.92 212.65 591.92 211.05 C 596.65 204.32 601.07 197.38 605.73 190.60 C 606.65 189.63 606.67 188.35 606.31 187.13 C 597.71 189.04 589.21 191.52 580.96 194.61 M 82.78 188.46 C 85.23 193.11 88.35 197.36 90.71 202.07 C 93.25 207.35 99.71 208.86 105.07 208.92 C 109.56 208.91 110.14 203.48 112.74 200.89 C 111.61 197.81 110.38 194.61 108.11 192.19 C 99.66 191.21 91.20 189.79 82.78 188.46 M 408.32 191.65 C 408.29 193.13 408.35 194.61 408.50 196.08 C 409.96 206.15 409.44 216.42 408.13 226.48 C 406.55 237.63 404.28 249.16 397.76 258.58 C 393.52 265.02 387.32 270.23 380.05 272.87 C 370.81 276.54 360.67 275.52 350.96 275.69 C 335.64 275.88 320.32 275.17 305.00 275.70 C 292.02 275.74 279.03 275.57 266.04 275.78 C 264.19 277.81 267.66 278.34 268.95 278.22 C 302.29 278.16 335.64 278.21 368.99 278.20 C 376.68 277.69 384.25 275.02 390.53 270.55 C 398.37 264.96 403.60 256.40 406.62 247.39 C 410.74 235.38 412.16 222.65 412.54 210.02 C 412.90 203.62 410.40 197.57 408.32 191.65 M 594.37 212.02 C 601.24 209.51 607.88 206.41 614.33 202.95 C 614.04 198.82 610.81 195.11 608.84 191.40 C 603.79 198.11 599.08 205.08 594.37 212.02 M 480.16 201.01 C 486.09 203.97 491.80 207.47 497.98 209.85 C 494.46 203.66 489.72 198.22 484.85 193.06 C 481.75 193.90 481.72 198.51 480.16 201.01 M 561.92 200.97 C 564.87 202.63 567.31 205.39 570.79 205.97 C 572.34 203.65 573.32 201.03 574.39 198.46 C 570.36 195.36 565.59 199.10 561.92 200.97 M 190.40 205.84 C 190.40 206.21 190.38 206.94 190.37 207.31 C 194.54 209.13 199.26 209.39 203.67 208.41 C 205.45 207.98 205.57 205.81 204.73 204.46 C 203.90 203.02 203.59 200.81 201.93 200.14 C 197.75 201.24 193.97 203.46 190.40 205.84 M 551.91 203.57 C 556.59 205.56 561.58 207.21 565.43 210.71 C 571.46 215.64 574.18 223.40 574.99 230.93 C 576.57 217.70 565.13 204.42 551.91 203.57 M 476.19 214.56 C 483.19 214.97 490.14 214.02 497.08 213.34 C 496.30 211.63 494.24 211.21 492.77 210.30 C 488.13 208.19 483.79 205.08 478.63 204.41 C 476.98 207.54 476.21 211.04 476.19 214.56 M 612.91 206.64 C 607.68 209.11 602.35 211.38 597.20 214.00 C 604.38 214.92 611.59 216.14 618.85 216.06 C 619.11 212.39 617.29 209.16 616.03 205.86 C 614.93 205.93 613.89 206.19 612.91 206.64 M 67.36 211.57 C 66.00 213.03 65.97 215.57 66.54 217.38 C 73.79 219.66 81.20 217.03 88.46 216.24 C 91.03 215.53 94.01 216.06 96.32 214.59 C 89.84 212.07 82.89 210.90 75.95 210.71 C 73.07 210.64 70.10 210.53 67.36 211.57 M 506.22 214.85 C 507.85 217.15 510.19 220.77 513.52 219.30 C 515.09 218.47 517.98 217.85 517.61 215.55 C 514.25 213.46 509.95 214.74 506.22 214.85 M 177.46 216.25 C 174.99 217.40 171.69 219.50 173.29 222.70 C 184.70 223.12 196.02 225.16 207.42 225.30 C 207.40 223.54 207.49 221.77 207.24 220.03 C 201.34 218.13 194.96 218.38 188.93 216.97 C 185.16 216.44 181.13 214.20 177.46 216.25 M 489.94 216.58 C 493.06 219.86 497.19 221.93 500.90 224.47 C 503.33 223.25 505.79 222.07 508.42 221.31 C 507.43 219.71 506.12 218.36 504.58 217.31 C 500.48 213.69 494.72 216.06 489.94 216.58 M 477.08 217.37 C 475.08 217.32 474.59 219.46 474.53 221.02 C 479.35 223.09 484.38 224.62 489.15 226.84 C 492.32 228.47 495.88 227.37 498.71 225.58 C 495.95 223.97 493.28 222.22 490.76 220.26 C 487.01 217.15 481.76 216.27 477.08 217.37 M 589.14 220.98 C 592.93 222.36 596.49 224.28 600.13 226.02 C 605.19 223.92 610.02 221.31 615.11 219.28 C 608.16 217.69 601.03 217.22 593.93 216.88 C 591.47 216.62 589.96 219.02 589.14 220.98 M 75.65 220.33 C 79.85 222.83 84.41 224.61 89.00 226.26 C 93.34 224.37 97.59 222.24 101.70 219.90 C 102.47 218.13 101.92 217.28 100.05 217.37 C 91.89 218.05 83.78 219.33 75.65 220.33 M 65.27 228.09 C 64.85 231.70 68.24 235.72 72.03 234.39 C 76.48 232.39 80.99 230.41 85.16 227.85 C 79.49 225.53 74.18 221.73 67.98 221.08 C 64.41 221.19 65.26 225.70 65.27 228.09 M 613.80 222.78 C 610.41 224.26 606.67 225.18 603.78 227.57 C 608.51 229.43 613.19 231.42 617.99 233.10 C 619.14 233.55 620.38 233.61 621.61 233.45 C 621.60 229.20 620.96 225.00 620.16 220.83 C 617.86 220.72 615.88 222.06 613.80 222.78 M 398.59 242.11 C 400.31 235.46 401.89 228.68 401.89 221.77 C 397.35 227.56 398.04 235.24 398.59 242.11 M 503.35 226.19 C 507.36 228.59 511.22 231.36 515.75 232.74 C 515.40 228.61 512.50 225.20 509.10 223.08 C 507.31 224.35 505.40 225.43 503.35 226.19 M 580.62 230.00 C 581.71 230.60 582.43 232.47 583.91 232.01 C 588.36 230.97 592.62 229.25 596.77 227.34 C 593.44 225.96 590.54 223.48 587.05 222.62 C 584.50 224.66 582.01 226.99 580.62 230.00 M 473.89 224.49 C 473.72 228.33 473.32 232.23 474.16 236.03 C 479.27 234.27 484.13 231.86 489.04 229.63 C 484.13 227.58 479.23 225.14 473.89 224.49 M 496.73 229.91 C 501.20 232.22 505.94 235.11 511.20 234.22 C 510.28 232.31 508.18 231.59 506.58 230.41 C 504.49 229.17 502.48 227.28 499.87 227.49 C 498.69 228.12 497.73 229.05 496.73 229.91 M 586.33 234.20 C 592.74 237.34 599.27 240.23 605.52 243.67 C 609.65 245.99 614.68 245.36 618.95 243.78 C 620.71 243.37 620.66 241.28 621.24 239.94 C 621.06 239.20 620.70 237.74 620.52 237.01 C 615.56 234.43 610.15 232.94 605.04 230.70 C 602.83 229.93 600.47 228.34 598.10 229.44 C 594.17 231.00 590.29 232.71 586.33 234.20 M 85.72 230.72 C 82.27 232.63 78.48 233.85 75.08 235.85 C 80.38 236.70 85.61 238.02 90.94 238.63 C 93.70 238.42 97.67 237.09 98.75 234.55 C 94.73 232.69 90.32 228.11 85.72 230.72 M 174.93 232.19 C 176.98 236.67 181.47 239.98 186.07 241.54 C 192.44 242.29 198.82 240.69 205.00 239.27 C 207.22 239.25 207.87 236.01 206.55 234.60 C 198.66 233.84 190.77 233.00 182.92 231.83 C 180.28 231.55 177.40 230.77 174.93 232.19 M 474.82 238.79 C 473.00 241.43 475.11 244.86 475.56 247.69 C 486.76 247.40 496.11 240.84 506.17 236.84 C 501.59 234.73 496.95 232.50 492.09 231.17 C 486.27 233.54 480.43 235.96 474.82 238.79 M 154.02 234.05 C 154.87 235.04 155.81 235.97 157.02 236.52 C 166.81 241.32 176.67 245.94 186.61 250.42 C 201.81 257.71 217.33 264.76 233.88 268.39 C 237.07 269.02 240.31 269.43 243.57 269.48 L 243.18 267.92 C 240.06 266.02 235.97 266.44 232.53 265.20 C 206.44 257.71 181.77 246.17 157.10 235.01 C 156.09 234.61 155.07 234.29 154.02 234.05 M 66.17 239.25 C 66.42 242.20 67.04 245.10 67.92 247.93 C 72.33 247.78 76.77 247.77 81.14 247.12 C 84.70 246.01 87.09 242.85 89.98 240.68 C 84.35 239.64 78.71 238.76 73.07 237.83 C 70.63 237.31 68.29 238.12 66.17 239.25 M 584.46 238.86 C 585.91 242.82 588.58 246.16 591.02 249.55 C 596.07 248.81 601.04 247.60 606.02 246.49 C 600.01 243.64 593.98 240.82 587.93 238.05 C 586.46 237.12 585.30 237.39 584.46 238.86 M 579.43 239.26 C 577.98 243.16 574.46 246.87 575.75 251.27 C 579.67 252.92 583.91 251.02 587.79 250.07 C 585.56 246.38 583.34 242.65 580.50 239.39 C 580.23 239.36 579.70 239.29 579.43 239.26 M 489.69 247.52 C 497.46 250.08 503.87 243.87 510.04 240.25 C 502.62 240.08 496.09 244.36 489.69 247.52 M 191.75 244.16 C 194.87 247.47 199.83 246.57 203.91 246.70 C 206.39 246.43 206.31 243.34 206.80 241.52 C 201.82 242.64 196.69 242.84 191.75 244.16 M 86.88 247.20 C 91.95 247.19 97.03 247.48 102.09 247.08 C 102.64 245.98 103.12 244.86 103.53 243.71 C 101.22 242.31 98.36 242.94 95.81 242.44 C 92.07 241.58 89.25 244.84 86.88 247.20 M 607.05 248.98 C 602.29 249.79 597.61 250.95 592.85 251.72 C 597.13 254.37 601.61 256.67 605.99 259.16 C 608.82 260.53 611.68 262.90 615.02 262.23 C 617.63 259.51 617.88 255.48 618.75 252.00 C 614.90 250.91 611.23 248.06 607.05 248.98 M 82.41 251.50 C 80.34 252.33 77.71 253.12 76.95 255.47 C 83.58 255.38 90.22 255.55 96.86 255.40 C 99.53 255.39 100.02 252.25 100.87 250.32 C 94.72 250.44 88.35 249.54 82.41 251.50 M 476.46 251.61 C 476.86 253.03 477.25 254.46 477.64 255.89 C 481.31 254.66 484.73 252.82 488.27 251.24 C 484.61 249.79 480.12 250.17 476.46 251.61 M 102.84 255.51 C 106.38 256.02 109.95 256.19 113.53 256.23 C 113.72 254.23 114.31 251.57 112.01 250.52 C 109.70 250.28 107.30 250.31 105.05 250.95 C 102.96 251.39 103.40 254.00 102.84 255.51 M 160.17 252.35 C 159.07 253.81 157.56 255.31 158.65 257.23 C 161.86 256.78 165.10 256.85 168.33 256.97 C 168.45 252.77 163.47 251.58 160.17 252.35 M 576.87 254.88 C 576.16 257.82 577.44 260.97 577.49 264.01 C 578.10 267.15 577.40 271.41 580.72 273.22 C 586.92 277.27 593.15 281.30 599.32 285.42 C 600.71 284.04 603.42 282.57 602.56 280.25 C 599.10 272.24 595.78 264.12 591.46 256.52 C 590.43 254.96 589.32 252.55 587.04 252.93 C 583.70 253.88 580.21 254.05 576.87 254.88 M 506.37 260.31 C 510.18 259.60 514.07 259.28 517.87 258.48 C 520.12 258.37 522.00 256.98 522.20 254.63 C 518.77 254.91 515.33 254.71 511.90 254.81 C 508.90 255.09 507.63 258.01 506.37 260.31 M 563.89 262.23 C 564.47 264.07 565.01 266.12 566.70 267.29 C 569.57 269.44 572.43 271.82 575.85 273.07 C 575.77 267.16 574.62 261.31 573.44 255.53 C 569.78 256.91 565.14 257.95 563.89 262.23 M 594.61 255.81 C 597.27 261.89 599.83 268.60 605.70 272.33 C 606.83 273.00 608.67 274.48 609.81 273.07 C 611.22 271.28 612.24 269.18 612.88 266.99 C 612.90 265.04 610.72 264.54 609.40 263.67 C 604.39 261.20 599.65 258.22 594.61 255.81 M 21.78 265.83 C 24.62 264.34 26.88 261.90 29.91 260.73 C 37.81 257.29 46.64 258.85 54.97 258.91 C 79.98 259.58 104.95 261.01 129.96 261.72 C 143.63 262.42 157.33 263.13 171.02 262.58 C 179.01 262.17 186.27 266.54 192.16 271.52 C 187.13 271.88 183.18 268.64 178.97 266.54 C 133.08 264.68 87.05 262.86 41.09 261.36 C 39.25 261.28 37.41 261.43 35.58 261.59 C 35.33 263.16 35.16 264.75 35.10 266.35 C 42.95 268.04 51.02 267.42 58.98 267.97 C 69.32 268.58 79.70 268.54 90.04 269.17 C 117.69 270.39 145.35 270.90 172.99 272.11 C 175.17 272.14 177.37 272.22 179.49 272.78 C 185.52 274.41 191.79 272.81 197.93 273.52 C 197.46 272.94 196.53 271.79 196.06 271.21 C 196.56 271.32 197.56 271.56 198.06 271.68 C 198.16 271.12 198.37 269.99 198.47 269.43 C 190.70 267.82 185.32 260.21 176.99 260.61 C 131.00 259.39 85.00 257.93 39.01 256.43 C 32.19 256.51 26.01 260.76 21.78 265.83 M 524.10 260.03 C 522.64 264.56 522.84 269.43 521.63 274.03 C 524.58 273.15 526.90 271.02 529.54 269.54 C 531.47 268.20 534.44 266.98 533.96 264.09 C 533.03 262.03 531.57 260.28 530.38 258.37 C 528.18 258.32 525.94 258.79 524.10 260.03 M 504.83 262.84 C 502.57 265.52 501.44 268.86 499.89 271.95 C 498.19 275.66 496.00 279.14 494.61 283.00 C 495.51 284.50 496.84 286.70 498.97 285.76 C 503.44 283.27 507.75 280.48 512.44 278.37 C 515.15 276.93 518.74 275.80 519.60 272.45 C 520.45 268.58 520.27 264.58 520.79 260.67 C 515.46 261.34 510.21 262.59 504.83 262.84 M 482.53 267.91 C 483.42 269.97 484.46 271.98 485.65 273.89 C 490.65 270.90 495.27 267.35 499.70 263.58 C 493.86 264.18 487.47 264.34 482.53 267.91 M 543.30 267.82 C 544.51 271.64 546.28 275.33 548.51 278.66 C 548.78 278.72 549.31 278.84 549.58 278.90 C 551.82 274.62 554.36 270.47 556.28 266.03 C 556.17 265.40 555.94 264.14 555.83 263.51 C 553.24 263.40 550.65 262.93 548.06 263.18 C 546.02 264.01 543.36 265.28 543.30 267.82 M 207.77 272.05 C 222.81 276.09 238.42 277.19 253.93 277.60 C 255.35 277.74 258.71 277.52 257.16 275.31 C 240.54 273.74 223.76 272.21 207.68 267.43 C 207.21 268.97 207.15 270.54 207.77 272.05 M 488.32 275.97 C 488.34 278.28 490.85 279.63 492.08 281.40 C 494.81 277.37 496.42 272.74 497.89 268.14 C 494.73 270.77 490.94 272.75 488.32 275.97 M 564.05 268.85 C 563.29 273.79 562.75 279.06 564.67 283.82 C 567.23 289.82 570.70 295.42 572.87 301.60 C 575.40 301.78 579.10 300.16 578.39 297.09 C 577.42 290.68 577.53 284.13 576.32 277.76 C 572.30 274.74 568.18 271.76 564.05 268.85 M 523.46 277.55 C 521.95 278.59 520.76 280.17 520.64 282.05 C 520.15 286.74 519.83 291.48 518.51 296.03 C 518.03 297.41 518.35 298.85 518.61 300.24 C 520.46 301.17 522.78 303.46 524.82 301.62 C 528.78 294.83 532.56 287.91 536.16 280.91 C 535.79 277.14 536.06 272.95 534.28 269.50 C 530.74 272.28 527.12 274.94 523.46 277.55 M 551.06 282.90 C 553.36 287.53 556.36 291.78 558.68 296.40 C 558.66 296.79 558.62 297.58 558.60 297.97 C 561.73 289.24 560.75 279.38 557.20 270.93 C 554.63 274.60 552.72 278.75 551.06 282.90 M 40.96 278.94 C 80.63 281.17 120.32 283.27 160.05 283.65 C 164.67 284.08 169.29 284.64 173.95 284.63 C 180.91 284.98 188.15 282.21 192.98 277.19 C 188.54 278.98 184.98 282.68 180.14 283.49 C 175.80 284.15 171.41 283.33 167.04 283.44 C 153.39 282.50 139.68 282.69 126.03 281.74 C 97.00 280.68 68.01 278.79 39.00 277.34 C 34.20 277.29 29.70 275.27 25.99 272.32 C 29.34 277.09 35.30 279.13 40.96 278.94 M 539.53 297.10 C 542.62 292.70 544.85 287.72 547.53 283.04 C 546.06 279.42 544.14 276.01 541.95 272.79 C 536.89 279.97 538.92 288.99 539.53 297.10 M 583.68 283.37 C 586.10 286.14 587.84 289.68 591.02 291.69 C 593.95 292.16 595.63 288.74 597.64 287.11 C 591.44 283.22 585.39 279.12 579.18 275.26 C 579.18 278.58 581.92 280.84 583.68 283.37 M 499.77 287.92 C 501.27 289.58 502.66 291.66 504.94 292.30 C 506.75 291.97 508.00 290.48 509.29 289.29 C 512.49 285.91 515.61 282.45 518.71 278.97 C 518.29 278.85 517.46 278.61 517.04 278.48 C 511.30 281.63 505.45 284.63 499.77 287.92 M 579.87 283.04 C 579.82 287.88 579.64 292.82 580.67 297.58 C 581.89 299.38 583.58 297.56 584.86 296.84 C 586.04 295.81 588.52 295.06 587.81 293.04 C 585.26 289.63 582.50 286.38 579.87 283.04 M 508.19 294.31 C 509.99 296.33 512.41 297.59 514.71 298.97 C 516.84 294.58 517.30 289.58 517.21 284.77 C 514.12 287.88 511.43 291.36 508.19 294.31 M 562.65 285.81 C 562.70 292.05 561.00 298.45 562.57 304.58 C 565.44 304.99 568.40 304.12 570.57 302.18 C 567.89 296.75 565.64 291.09 562.65 285.81 M 98.29 291.92 C 98.59 294.53 101.60 295.49 103.50 296.78 C 105.53 294.03 106.46 290.67 106.69 287.29 C 103.19 286.47 99.52 288.64 98.29 291.92 M 109.54 287.35 C 108.66 290.90 107.46 294.39 107.14 298.06 C 108.86 298.95 110.56 299.88 112.24 300.84 C 115.49 296.66 118.15 292.04 120.73 287.42 C 117.01 287.07 113.26 287.14 109.54 287.35 M 529.04 299.08 C 528.21 300.65 526.37 303.33 529.07 304.15 C 531.41 304.85 536.56 307.15 536.64 303.12 C 537.23 297.76 536.22 292.39 536.18 287.03 C 533.65 290.95 531.44 295.07 529.04 299.08 M 117.55 297.55 C 116.81 299.00 115.35 300.79 116.48 302.43 C 119.07 304.06 122.28 304.18 125.25 304.40 C 125.27 298.92 125.20 293.41 124.26 287.99 C 121.71 290.94 119.69 294.30 117.55 297.55 M 127.42 288.30 C 127.34 293.22 127.21 298.21 127.79 303.10 C 128.46 306.91 133.17 305.25 135.85 305.61 C 137.56 299.87 136.36 293.70 136.71 287.79 C 133.66 287.99 130.25 287.12 127.42 288.30 M 139.90 288.16 C 139.83 294.01 139.88 299.85 139.86 305.70 C 142.32 305.71 144.78 305.64 147.24 305.53 C 147.60 305.17 148.33 304.44 148.70 304.08 C 148.87 298.98 148.90 293.81 148.29 288.75 C 145.69 287.63 142.67 288.40 139.90 288.16 M 151.63 288.20 C 151.25 293.58 150.16 299.59 152.62 304.61 C 155.68 304.38 158.39 302.84 161.14 301.61 C 158.62 296.76 155.74 291.88 151.63 288.20 M 550.85 305.96 C 553.05 308.03 557.67 306.70 559.61 304.71 C 557.88 298.45 553.62 293.38 550.40 287.86 C 550.00 293.87 550.34 299.97 550.85 305.96 M 156.11 288.56 C 159.07 292.48 161.07 297.17 164.69 300.57 C 166.32 299.57 168.91 299.21 169.55 297.12 C 169.07 294.09 167.62 291.31 166.30 288.57 C 162.90 288.53 159.50 288.52 156.11 288.56 M 172.90 296.65 C 176.15 294.64 179.61 292.68 181.81 289.46 C 178.19 289.99 174.59 289.36 171.01 288.87 C 168.72 291.00 172.24 294.29 172.90 296.65 M 539.49 306.38 C 542.22 306.50 545.03 307.25 547.75 306.65 C 548.95 304.97 548.43 302.87 548.45 300.97 C 548.36 296.90 548.22 292.82 547.47 288.81 C 544.33 294.41 540.13 299.78 539.49 306.38 Z" />
</g>
</svg>
